{"title":"Lisa Ann's School of MILF ( dvd +bonus )","uid":10170459,"size":2271840463,"categoryP":"porn","categoryS":"movies","magnet":"?xt=urn:btih:6c26c714f4971c426b92654092de46e31a34e1d9&amp;dn=Lisa+Ann%27s+School+of+MILF+%28+dvd+%2Bbonus+%29&amp;tr=udp%3A%2F%2Ftracker.openbittorrent.com%3A80&amp;tr=udp%3A%2F%2Fopen.demonii.com%3A1337&amp;tr=udp%3A%2F%2Ftracker.coppersurfer.tk%3A6969&amp;tr=udp%3A%2F%2Fexodus.desync.com%3A6969","seeders":0,"leechers":0,"uploader":"NETBOX68","files":1,"time":1400400772,"description":"Lisa Ann's School of MILF ( dvd +bonus )\n------------------------------------------------------------------------\ncovers\n*****************************\nfront\n &lt;a href=&quot;\nhttp://bayimg.com/CAobKAaFD&quot; rel=&quot;nofollow&quot; target=&quot;_NEW&quot;&gt;\nhttp://bayimg.com/CAobKAaFD&lt;/a&gt;\n\n***************************\nback\n &lt;a href=&quot;\nhttp://bayimg.com/CaOBMaafD&quot; rel=&quot;nofollow&quot; target=&quot;_NEW&quot;&gt;\nhttp://bayimg.com/CaOBMaafD&lt;/a&gt;\n\n***************************\nscreen\n &lt;a href=&quot;\nhttp://bayimg.com/CAObNAaFD&quot; rel=&quot;nofollow&quot; target=&quot;_NEW&quot;&gt;\nhttp://bayimg.com/CAObNAaFD&lt;/a&gt;\n &lt;a href=&quot;\nhttp://bayimg.com/CaoBPaAfD&quot; rel=&quot;nofollow&quot; target=&quot;_NEW&quot;&gt;\nhttp://bayimg.com/CaoBPaAfD&lt;/a&gt;\n\n--------------------------------\ndvd\n*************************\nmin = 01 51 ' 50 ''\ngb = 2.02\n1280*720\n-----------------------------------\nbonus\n---------------------\ncovers,Photo Gallery,\npornostar,screen,\nsample.\n-----------------------------------------\nstoixeia\n----------------\nGeneral\nComplete name                    : C:ETOIMAxxxDVDLisa Ann's School of MILFdvdLisa Ann's School of MILF.avi\nFormat                           : AVI\nFormat/Info                      : Audio Video Interleave\nFormat profile                   : OpenDML\nFile size                        : 2.03 GiB\nDuration                         : 1h 51mn\nOverall bit rate                 : 2 597 Kbps\nWriting application              : MEncoder SVN-r30881(20100311-gcc4.3.3)\nWriting library                  : MPlayer\n\nVideo\nID                               : 0\nFormat                           : MPEG-4 Visual\nFormat profile                   : Advanced Simple@L5\nFormat settings, BVOP            : 2\nFormat settings, QPel            : No\nFormat settings, GMC             : No warppoints\nFormat settings, Matrix          : Default (H.263)\nCodec ID                         : XVID\nCodec ID/Hint                    : XviD\nDuration                         : 1h 51mn\nBit rate                         : 2 392 Kbps\nWidth                            : 1 280 pixels\nHeight                           : 720 pixels\nDisplay aspect ratio             : 16:9\nFrame rate                       : 25.000 fps\nColor space                      : YUV\nChroma subsampling               : 4:2:0\nBit depth                        : 8 bits\nScan type                        : Progressive\nCompression mode                 : Lossy\nBits/(Pixel*Frame)               : 0.104\nStream size                      : 1.87 GiB (92%)\nWriting library                  : XviD 1.2.1 (UTC 2008-12-04)\n\nAudio\nID                               : 1\nFormat                           : MPEG Audio\nFormat version                   : Version 1\nFormat profile                   : Layer 3\nMode                             : Joint stereo\nMode extension                   : MS Stereo\nCodec ID                         : 55\nCodec ID/Hint                    : MP3\nDuration                         : 1h 51mn\nBit rate mode                    : Constant\nBit rate                         : 192 Kbps\nChannel(s)                       : 2 channels\nSampling rate                    : 48.0 KHz\nCompression mode                 : Lossy\nStream size                      : 2.33 MiB (0%)\nAlignment                        : Aligned on interleaves\nInterleave, duration             : 1579 ms (39.48 video frames)\nInterleave, preload duration     : 504 ms\nWriting library                  : LAME3.98\n\n","torrent":{"xt":"urn:btih:6c26c714f4971c426b92654092de46e31a34e1d9","amp;dn":"Lisa+Ann%27s+School+of+MILF+%28+dvd+%2Bbonus+%29","amp;tr":["udp%3A%2F%2Ftracker.openbittorrent.com%3A80","udp%3A%2F%2Fopen.demonii.com%3A1337","udp%3A%2F%2Ftracker.coppersurfer.tk%3A6969","udp%3A%2F%2Fexodus.desync.com%3A6969"],"infoHash":"6c26c714f4971c426b92654092de46e31a34e1d9","infoHashBuffer":{"type":"Buffer","data":[108,38,199,20,244,151,28,66,107,146,101,64,146,222,70,227,26,52,225,217]},"announce":[],"urlList":[]}}